<?xml version="1.0" encoding="UTF-8" standalone="no"?>
<!DOCTYPE svg PUBLIC "-//W3C//DTD SVG 1.1//EN" "http://www.w3.org/Graphics/SVG/1.1/DTD/svg11.dtd">
<svg version="1.1" xmlns="http://www.w3.org/2000/svg" xmlns:xlink="http://www.w3.org/1999/xlink" preserveAspectRatio="xMidYMid meet" viewBox="0 0 640 640" width="640" height="640"><defs><path d="M-793.6 44.51L-784.6 45.44L-775.7 46.73L-766.93 48.37L-758.27 50.35L-749.75 52.67L-741.36 55.32L-733.12 58.29L-725.02 61.58L-717.09 65.18L-709.32 69.07L-701.73 73.26L-694.31 77.73L-687.08 82.48L-680.05 87.51L-673.22 92.79L-666.6 98.33L-660.19 104.13L-654.01 110.16L-648.06 116.42L-642.35 122.92L-636.88 129.63L-631.66 136.55L-626.71 143.68L-622.02 151.01L-617.61 158.53L-613.48 166.23L-609.64 174.1L-606.09 182.14L-602.85 190.35L-599.92 198.71L-597.3 207.21L-595.01 215.85L-593.05 224.62L-591.44 233.52L-590.17 242.54L-589.25 251.66L-588.7 260.88L-588.51 270.2L-588.64 278L-589.02 285.73L-589.66 293.38L-590.54 300.94L-591.67 308.42L-593.03 315.82L-594.63 323.12L-596.46 330.32L-598.51 337.42L-600.78 344.42L-603.27 351.31L-605.97 358.09L-608.87 364.76L-611.98 371.3L-615.29 377.73L-618.78 384.02L-622.47 390.19L-626.35 396.22L-630.4 402.12L-634.63 407.88L-639.03 413.49L-643.59 418.95L-648.32 424.26L-653.21 429.41L-658.25 434.4L-663.44 439.23L-668.77 443.89L-674.24 448.38L-679.85 452.7L-685.59 456.84L-691.46 460.79L-697.45 464.56L-703.55 468.14L-709.77 471.53L-716.1 474.71L-722.53 477.7L-729.07 480.49L-735.69 483.06L-742.41 485.42L-749.22 487.57L-749.31 488.33L-749.4 489.1L-749.49 489.89L-749.58 490.69L-749.66 491.5L-749.75 492.32L-749.84 493.16L-749.92 494L-750.01 494.86L-750.09 495.73L-750.17 496.61L-750.25 497.51L-750.33 498.41L-750.4 499.32L-750.48 500.25L-750.55 501.18L-750.62 502.12L-750.69 503.08L-750.76 504.04L-750.83 505.01L-750.89 505.99L-750.95 506.98L-751.01 507.97L-751.07 508.98L-751.12 509.99L-751.17 511.01L-751.22 512.04L-751.27 513.07L-751.31 514.11L-751.35 515.16L-751.39 516.22L-751.43 517.28L-751.46 518.34L-751.49 519.41L-751.51 520.49L-751.53 521.58L-751.55 522.66L-751.57 523.76L-751.58 524.85L-751.59 525.95L-751.59 528.93L-751.57 531.96L-751.52 535.03L-751.44 538.14L-751.32 541.27L-751.17 544.43L-750.98 547.6L-750.75 550.78L-750.47 553.97L-750.15 557.15L-749.78 560.32L-749.36 563.47L-748.88 566.6L-748.35 569.71L-747.76 572.77L-747.11 575.8L-746.39 578.77L-745.61 581.7L-744.76 584.56L-743.84 587.35L-742.85 590.07L-741.78 592.71L-740.64 595.26L-739.41 597.72L-738.1 600.08L-736.7 602.34L-735.21 604.48L-733.64 606.5L-731.97 608.4L-730.21 610.17L-728.34 611.8L-726.38 613.28L-724.32 614.62L-722.15 615.79L-719.87 616.81L-717.48 617.65L-714.98 618.32L-712.36 618.8L-709.62 619.1L-706.77 619.2L-704.6 619.24L-702.46 619.37L-700.34 619.59L-698.24 619.89L-696.17 620.28L-694.13 620.74L-692.13 621.29L-690.15 621.91L-688.21 622.61L-686.3 623.38L-684.44 624.23L-682.61 625.14L-680.82 626.13L-679.08 627.18L-677.38 628.29L-675.72 629.47L-674.12 630.72L-672.56 632.02L-671.05 633.38L-669.6 634.8L-668.2 636.27L-666.86 637.8L-665.57 639.38L-664.35 641.01L-663.18 642.68L-662.08 644.41L-661.04 646.18L-660.07 647.99L-659.17 649.84L-658.34 651.73L-657.58 653.67L-656.89 655.63L-656.27 657.63L-655.74 659.67L-655.28 661.74L-654.9 663.83L-654.6 665.96L-654.38 668.11L-654.25 670.28L-654.21 672.48L-654.21 685.8L-654.24 687.44L-654.34 689.07L-654.5 690.68L-654.73 692.27L-655.01 693.84L-655.36 695.39L-655.76 696.91L-656.22 698.41L-656.74 699.89L-657.31 701.34L-657.94 702.76L-658.62 704.15L-659.34 705.51L-660.12 706.83L-660.95 708.12L-661.82 709.38L-662.74 710.6L-663.71 711.79L-664.72 712.94L-665.77 714.04L-666.86 715.11L-667.99 716.13L-669.16 717.11L-670.36 718.04L-671.6 718.92L-672.88 719.76L-674.19 720.55L-675.53 721.29L-676.9 721.98L-678.3 722.61L-679.73 723.19L-681.18 723.72L-682.66 724.19L-684.17 724.59L-685.69 724.94L-687.24 725.23L-688.81 725.46L-690.4 725.63L-692.01 725.72L-693.63 725.76L-752.76 725.76L-753.3 725.75L-753.84 725.71L-754.37 725.66L-754.89 725.58L-755.41 725.49L-755.92 725.37L-756.42 725.23L-756.91 725.08L-757.4 724.9L-757.88 724.71L-758.34 724.5L-758.8 724.27L-759.25 724.03L-759.68 723.76L-760.11 723.48L-760.52 723.19L-760.92 722.88L-761.31 722.55L-761.69 722.21L-762.05 721.86L-762.4 721.49L-762.74 721.11L-763.06 720.71L-763.37 720.3L-763.66 719.89L-763.93 719.45L-764.19 719.01L-764.43 718.56L-764.66 718.1L-764.87 717.62L-765.06 717.14L-765.23 716.65L-765.38 716.15L-765.52 715.64L-765.63 715.12L-765.73 714.6L-765.8 714.07L-765.86 713.53L-765.89 712.99L-765.9 712.44L-765.89 711.89L-765.86 711.35L-765.8 710.81L-765.73 710.28L-765.63 709.75L-765.52 709.24L-765.38 708.73L-765.23 708.23L-765.06 707.74L-764.87 707.25L-764.66 706.78L-764.43 706.32L-764.19 705.86L-763.93 705.42L-763.66 704.99L-763.37 704.57L-763.06 704.16L-762.74 703.77L-762.4 703.39L-762.05 703.02L-761.69 702.66L-761.31 702.32L-760.92 702L-760.52 701.69L-760.11 701.39L-759.68 701.11L-759.25 700.85L-758.8 700.6L-758.34 700.38L-757.88 700.16L-757.4 699.97L-756.91 699.8L-756.42 699.64L-755.92 699.5L-755.41 699.39L-754.89 699.29L-754.37 699.22L-753.84 699.16L-753.3 699.13L-752.76 699.12L-693.63 699.12L-693.09 699.11L-692.55 699.07L-692.02 699.02L-691.5 698.94L-690.98 698.85L-690.47 698.73L-689.97 698.59L-689.48 698.44L-688.99 698.26L-688.52 698.07L-688.05 697.86L-687.59 697.63L-687.15 697.38L-686.71 697.12L-686.29 696.84L-685.87 696.54L-685.47 696.23L-685.08 695.91L-684.71 695.57L-684.34 695.21L-683.99 694.84L-683.66 694.46L-683.33 694.07L-683.03 693.66L-682.74 693.24L-682.46 692.81L-682.2 692.37L-681.96 691.91L-681.73 691.45L-681.52 690.98L-681.33 690.5L-681.16 690L-681.01 689.5L-680.87 689L-680.76 688.48L-680.66 687.96L-680.59 687.43L-680.53 686.89L-680.5 686.35L-680.49 685.8L-680.49 672.48L-680.51 671.38L-680.58 670.29L-680.68 669.22L-680.83 668.16L-681.02 667.11L-681.25 666.07L-681.52 665.06L-681.83 664.06L-682.17 663.07L-682.55 662.11L-682.97 661.16L-683.42 660.23L-683.91 659.33L-684.43 658.44L-684.98 657.58L-685.56 656.74L-686.17 655.93L-686.81 655.14L-687.49 654.38L-688.19 653.64L-688.91 652.93L-689.67 652.25L-690.44 651.6L-691.25 650.98L-692.08 650.39L-692.93 649.83L-693.8 649.3L-694.69 648.81L-695.61 648.35L-696.54 647.93L-697.49 647.54L-698.46 647.19L-699.45 646.88L-700.45 646.61L-701.47 646.38L-702.51 646.18L-703.55 646.03L-704.61 645.92L-705.69 645.86L-706.77 645.84L-710.97 645.72L-715.01 645.38L-718.89 644.82L-722.62 644.04L-726.2 643.06L-729.64 641.87L-732.93 640.49L-736.08 638.92L-739.09 637.17L-741.96 635.24L-744.7 633.14L-747.3 630.88L-749.78 628.45L-752.14 625.88L-754.36 623.16L-756.47 620.3L-758.46 617.31L-760.34 614.19L-762.1 610.95L-763.75 607.59L-765.3 604.13L-766.74 600.56L-768.07 596.9L-769.31 593.15L-770.45 589.31L-771.5 585.4L-772.45 581.41L-773.32 577.36L-774.1 573.25L-774.79 569.09L-775.41 564.89L-775.94 560.64L-776.4 556.36L-776.79 552.05L-777.11 547.72L-777.36 543.37L-777.54 539.01L-777.66 534.65L-777.72 530.3L-777.73 525.95L-777.72 525.03L-777.71 524.11L-777.7 523.19L-777.69 522.28L-777.68 521.38L-777.66 520.48L-777.64 519.58L-777.62 518.69L-777.6 517.81L-777.58 516.93L-777.56 516.06L-777.53 515.19L-777.5 514.33L-777.47 513.47L-777.44 512.62L-777.41 511.78L-777.38 510.94L-777.34 510.11L-777.3 509.29L-777.27 508.47L-777.23 507.66L-777.19 506.86L-777.14 506.06L-777.1 505.27L-777.05 504.49L-777.01 503.72L-776.96 502.95L-776.91 502.2L-776.86 501.44L-776.81 500.7L-776.76 499.97L-776.71 499.24L-776.66 498.52L-776.6 497.81L-776.55 497.11L-776.49 496.42L-776.43 495.74L-776.38 495.07L-776.32 494.4L-776.26 493.75L-777.14 493.89L-778.02 494.03L-778.9 494.16L-779.79 494.29L-780.67 494.42L-781.55 494.55L-782.44 494.67L-783.32 494.78L-784.21 494.9L-785.09 495.01L-785.98 495.12L-786.87 495.22L-787.76 495.32L-788.65 495.42L-789.54 495.51L-790.42 495.6L-791.31 495.68L-792.21 495.76L-793.1 495.84L-793.99 495.92L-794.88 495.99L-795.77 496.06L-796.66 496.12L-797.56 496.18L-798.45 496.24L-799.35 496.29L-800.24 496.34L-801.13 496.38L-802.03 496.43L-802.92 496.47L-803.82 496.5L-804.72 496.53L-805.61 496.56L-806.51 496.58L-807.4 496.6L-808.3 496.62L-809.2 496.63L-810.1 496.64L-810.99 496.65L-811.89 496.65L-812.79 496.65L-813.69 496.64L-814.58 496.63L-815.48 496.62L-816.38 496.6L-817.28 496.58L-818.17 496.56L-819.07 496.53L-819.97 496.5L-820.86 496.46L-821.76 496.43L-822.65 496.38L-823.55 496.34L-824.44 496.29L-825.34 496.23L-826.23 496.18L-827.12 496.12L-828.02 496.05L-828.91 495.99L-829.8 495.92L-830.69 495.84L-831.58 495.76L-832.48 495.68L-833.37 495.59L-834.26 495.51L-835.15 495.41L-836.03 495.32L-836.92 495.22L-837.81 495.11L-838.7 495.01L-839.58 494.9L-840.47 494.78L-841.36 494.67L-842.24 494.54L-843.13 494.42L-844.01 494.29L-844.89 494.16L-845.78 494.03L-846.66 493.89L-847.54 493.75L-847.47 494.45L-847.41 495.16L-847.35 495.88L-847.29 496.61L-847.22 497.35L-847.16 498.1L-847.1 498.86L-847.04 499.64L-846.98 500.42L-846.92 501.21L-846.87 502.01L-846.81 502.82L-846.76 503.63L-846.7 504.46L-846.65 505.29L-846.6 506.14L-846.55 506.99L-846.5 507.85L-846.45 508.71L-846.41 509.59L-846.36 510.47L-846.32 511.36L-846.28 512.26L-846.24 513.17L-846.2 514.08L-846.17 515L-846.13 515.92L-846.1 516.85L-846.07 517.79L-846.05 518.74L-846.02 519.69L-846 520.65L-845.98 521.61L-845.96 522.58L-845.95 523.55L-845.93 524.53L-845.92 525.51L-845.92 526.5L-845.91 527.5L-845.91 528.5L-845.99 535.99L-846.24 543.17L-846.64 550.03L-847.19 556.59L-847.88 562.85L-848.71 568.82L-849.67 574.5L-850.76 579.9L-851.96 585.04L-853.29 589.9L-854.72 594.51L-856.25 598.87L-857.88 602.98L-859.6 606.85L-861.41 610.49L-863.29 613.91L-865.25 617.1L-867.27 620.09L-869.36 622.87L-871.5 625.45L-873.7 627.84L-875.93 630.05L-878.21 632.08L-880.51 633.94L-882.85 635.63L-885.2 637.16L-887.57 638.55L-889.94 639.79L-892.32 640.89L-894.7 641.86L-897.07 642.71L-899.42 643.43L-901.75 644.05L-904.06 644.57L-906.33 644.98L-908.57 645.31L-910.76 645.55L-912.9 645.71L-914.99 645.81L-917.01 645.84L-918.09 645.86L-919.16 645.92L-920.22 646.03L-921.27 646.19L-922.3 646.38L-923.32 646.61L-924.32 646.88L-925.31 647.2L-926.28 647.55L-927.23 647.93L-928.16 648.36L-929.08 648.81L-929.97 649.31L-930.84 649.83L-931.69 650.39L-932.52 650.98L-933.33 651.61L-934.1 652.26L-934.86 652.94L-935.59 653.65L-936.29 654.39L-936.96 655.15L-937.6 655.94L-938.21 656.75L-938.8 657.59L-939.35 658.45L-939.87 659.34L-940.35 660.24L-940.81 661.17L-941.22 662.12L-941.6 663.08L-941.95 664.07L-942.26 665.07L-942.53 666.08L-942.76 667.11L-942.95 668.16L-943.1 669.22L-943.2 670.3L-943.27 671.38L-943.29 672.48L-943.29 685.8L-943.28 686.35L-943.25 686.89L-943.19 687.43L-943.12 687.96L-943.02 688.48L-942.91 689L-942.77 689.5L-942.62 690L-942.45 690.5L-942.26 690.98L-942.05 691.45L-941.82 691.91L-941.58 692.37L-941.32 692.81L-941.05 693.24L-940.75 693.66L-940.45 694.07L-940.13 694.46L-939.79 694.84L-939.44 695.21L-939.08 695.57L-938.7 695.91L-938.31 696.23L-937.91 696.54L-937.49 696.84L-937.07 697.12L-936.63 697.38L-936.19 697.63L-935.73 697.86L-935.26 698.07L-934.79 698.26L-934.3 698.44L-933.81 698.59L-933.31 698.73L-932.8 698.85L-932.28 698.94L-931.76 699.02L-931.23 699.07L-930.69 699.11L-930.15 699.12L-871.02 699.12L-870.48 699.13L-869.94 699.16L-869.41 699.22L-868.89 699.29L-868.37 699.39L-867.86 699.5L-867.36 699.64L-866.87 699.8L-866.38 699.97L-865.91 700.16L-865.44 700.38L-864.98 700.6L-864.54 700.85L-864.1 701.11L-863.67 701.39L-863.26 701.69L-862.86 702L-862.47 702.32L-862.09 702.66L-861.73 703.02L-861.38 703.39L-861.04 703.77L-860.72 704.16L-860.42 704.57L-860.12 704.99L-859.85 705.42L-859.59 705.86L-859.35 706.32L-859.12 706.78L-858.91 707.25L-858.72 707.74L-858.55 708.23L-858.4 708.73L-858.26 709.24L-858.15 709.75L-858.05 710.28L-857.98 710.81L-857.92 711.35L-857.89 711.89L-857.88 712.44L-857.89 712.99L-857.92 713.53L-857.98 714.07L-858.05 714.6L-858.15 715.12L-858.26 715.64L-858.4 716.15L-858.55 716.65L-858.72 717.14L-858.91 717.62L-859.12 718.1L-859.35 718.56L-859.59 719.01L-859.85 719.45L-860.12 719.89L-860.42 720.3L-860.72 720.71L-861.04 721.11L-861.38 721.49L-861.73 721.86L-862.09 722.21L-862.47 722.55L-862.86 722.88L-863.26 723.19L-863.67 723.48L-864.1 723.76L-864.54 724.03L-864.98 724.27L-865.44 724.5L-865.91 724.71L-866.38 724.9L-866.87 725.08L-867.36 725.23L-867.86 725.37L-868.37 725.49L-868.89 725.58L-869.41 725.66L-869.94 725.71L-870.48 725.75L-871.02 725.76L-930.15 725.76L-931.77 725.72L-933.38 725.63L-934.97 725.46L-936.54 725.23L-938.09 724.94L-939.61 724.59L-941.12 724.19L-942.6 723.72L-944.05 723.19L-945.48 722.61L-946.88 721.98L-948.25 721.29L-949.59 720.55L-950.9 719.76L-952.18 718.92L-953.42 718.04L-954.62 717.11L-955.79 716.13L-956.92 715.11L-958.01 714.04L-959.06 712.94L-960.07 711.79L-961.04 710.6L-961.96 709.38L-962.83 708.12L-963.66 706.83L-964.44 705.51L-965.17 704.15L-965.84 702.76L-966.47 701.34L-967.04 699.89L-967.56 698.41L-968.02 696.91L-968.42 695.39L-968.77 693.84L-969.06 692.27L-969.28 690.68L-969.44 689.07L-969.54 687.44L-969.57 685.8L-969.57 672.48L-969.53 670.28L-969.4 668.11L-969.18 665.97L-968.88 663.85L-968.5 661.75L-968.04 659.69L-967.5 657.66L-966.89 655.65L-966.2 653.69L-965.43 651.76L-964.6 649.87L-963.7 648.01L-962.72 646.2L-961.69 644.43L-960.58 642.71L-959.42 641.03L-958.19 639.4L-956.9 637.82L-955.56 636.29L-954.16 634.82L-952.7 633.4L-951.2 632.04L-949.64 630.73L-948.03 629.49L-946.38 628.31L-944.68 627.19L-942.93 626.14L-941.14 625.15L-939.32 624.24L-937.45 623.39L-935.55 622.62L-933.61 621.92L-931.63 621.29L-929.63 620.75L-927.59 620.28L-925.53 619.89L-923.43 619.59L-921.32 619.37L-919.17 619.24L-917.01 619.2L-914.29 619.1L-911.67 618.83L-909.16 618.39L-906.76 617.77L-904.45 617L-902.24 616.06L-900.14 614.97L-898.13 613.74L-896.21 612.36L-894.38 610.84L-892.64 609.2L-890.99 607.42L-889.43 605.53L-887.95 603.53L-886.55 601.41L-885.23 599.19L-883.99 596.87L-882.82 594.45L-881.73 591.95L-880.71 589.36L-879.76 586.7L-878.87 583.96L-878.06 581.16L-877.3 578.3L-876.61 575.38L-875.97 572.41L-875.39 569.39L-874.87 566.34L-874.4 563.24L-873.99 560.12L-873.62 556.98L-873.3 553.82L-873.02 550.64L-872.79 547.46L-872.6 544.27L-872.45 541.09L-872.33 537.92L-872.25 534.76L-872.21 531.61L-872.19 528.5L-872.19 527.22L-872.2 525.95L-872.21 524.68L-872.23 523.43L-872.25 522.18L-872.28 520.95L-872.31 519.72L-872.35 518.5L-872.39 517.3L-872.43 516.1L-872.47 514.92L-872.52 513.75L-872.58 512.59L-872.63 511.45L-872.69 510.31L-872.75 509.2L-872.82 508.09L-872.88 507L-872.95 505.93L-873.02 504.87L-873.1 503.82L-873.17 502.79L-873.25 501.78L-873.32 500.79L-873.4 499.81L-873.48 498.85L-873.56 497.91L-873.64 496.99L-873.72 496.09L-873.81 495.21L-873.89 494.34L-873.97 493.5L-874.05 492.68L-874.14 491.88L-874.22 491.11L-874.3 490.35L-874.38 489.62L-874.46 488.91L-874.53 488.22L-874.61 487.56L-881.44 485.4L-888.18 483.03L-894.82 480.44L-901.37 477.65L-907.82 474.65L-914.16 471.45L-920.39 468.06L-926.5 464.47L-932.5 460.69L-938.37 456.72L-944.11 452.57L-949.72 448.25L-955.19 443.75L-960.52 439.07L-965.71 434.24L-970.75 429.24L-975.63 424.07L-980.35 418.76L-984.91 413.29L-989.3 407.68L-993.52 401.92L-997.57 396.02L-1001.43 389.98L-1005.11 383.82L-1008.6 377.52L-1011.89 371.1L-1014.99 364.55L-1017.89 357.89L-1020.58 351.12L-1023.05 344.24L-1025.32 337.25L-1027.36 330.16L-1029.18 322.97L-1030.77 315.68L-1032.13 308.31L-1033.25 300.84L-1034.13 293.3L-1034.76 285.67L-1035.14 277.97L-1035.27 270.2L-1035.09 260.88L-1034.53 251.66L-1033.61 242.54L-1032.34 233.52L-1030.73 224.62L-1028.77 215.85L-1026.48 207.21L-1023.87 198.71L-1020.93 190.35L-1017.69 182.14L-1014.14 174.1L-1010.3 166.23L-1006.17 158.53L-1001.76 151.01L-997.07 143.68L-992.12 136.55L-986.9 129.63L-981.43 122.92L-975.72 116.42L-969.77 110.16L-963.59 104.13L-957.18 98.33L-950.56 92.79L-943.73 87.51L-936.7 82.48L-929.47 77.73L-922.06 73.26L-914.46 69.07L-906.69 65.18L-898.76 61.58L-890.67 58.29L-882.42 55.32L-874.03 52.67L-865.51 50.35L-856.85 48.37L-848.08 46.73L-839.18 45.44L-830.18 44.51L-821.08 43.95L-811.89 43.76L-802.7 43.95L-793.6 44.51ZM-828.03 71.06L-835.97 71.88L-843.82 73.02L-851.56 74.47L-859.2 76.22L-866.72 78.26L-874.12 80.6L-881.4 83.22L-888.54 86.12L-895.54 89.3L-902.39 92.73L-909.1 96.43L-915.64 100.38L-922.02 104.57L-928.22 109L-934.25 113.66L-940.09 118.55L-945.74 123.66L-951.2 128.99L-956.45 134.52L-961.49 140.24L-966.31 146.17L-970.91 152.28L-975.29 158.57L-979.42 165.03L-983.31 171.67L-986.96 178.46L-990.35 185.41L-993.48 192.5L-996.34 199.74L-998.93 207.12L-1001.23 214.62L-1003.25 222.25L-1004.98 229.99L-1006.41 237.84L-1007.53 245.79L-1008.34 253.84L-1008.83 261.98L-1008.99 270.2L-1008.83 278.46L-1008.34 286.63L-1007.54 294.7L-1006.42 302.67L-1005 310.53L-1003.29 318.28L-1001.28 325.91L-998.98 333.41L-996.41 340.78L-993.57 348.01L-990.46 355.09L-987.09 362.03L-983.46 368.8L-979.59 375.42L-975.48 381.86L-971.14 388.13L-966.56 394.21L-961.77 400.11L-956.76 405.82L-951.54 411.32L-946.12 416.62L-940.51 421.71L-934.7 426.58L-928.71 431.22L-922.55 435.63L-916.21 439.81L-909.71 443.74L-903.06 447.43L-896.25 450.86L-889.29 454.02L-882.2 456.92L-874.98 459.55L-867.63 461.9L-860.16 463.96L-852.58 465.73L-844.89 467.2L-837.11 468.36L-829.22 469.22L-821.25 469.76L-813.2 469.98L-805.05 469.86L-796.98 469.42L-789 468.65L-781.11 467.57L-773.32 466.17L-765.64 464.47L-758.08 462.46L-750.63 460.17L-743.32 457.59L-736.13 454.73L-729.09 451.59L-722.19 448.19L-715.44 444.53L-708.85 440.61L-702.43 436.45L-696.18 432.04L-690.12 427.4L-684.23 422.53L-678.54 417.43L-673.04 412.12L-667.75 406.6L-662.68 400.88L-657.82 394.96L-653.18 388.84L-648.77 382.54L-644.61 376.07L-640.68 369.42L-637.01 362.6L-633.59 355.63L-630.43 348.5L-627.55 341.23L-624.94 333.81L-622.61 326.26L-620.58 318.59L-618.84 310.79L-617.4 302.88L-616.26 294.86L-615.45 286.73L-614.95 278.51L-614.79 270.2L-614.95 261.98L-615.44 253.84L-616.25 245.79L-617.37 237.84L-618.8 229.99L-620.53 222.25L-622.55 214.62L-624.85 207.12L-627.44 199.74L-630.3 192.5L-633.43 185.41L-636.82 178.46L-640.47 171.67L-644.36 165.03L-648.5 158.57L-652.87 152.28L-657.47 146.17L-662.29 140.24L-667.33 134.52L-672.58 128.99L-678.04 123.66L-683.69 118.55L-689.53 113.66L-695.56 109L-701.77 104.57L-708.14 100.38L-714.69 96.43L-721.39 92.73L-728.24 89.3L-735.24 86.12L-742.38 83.22L-749.66 80.6L-757.06 78.26L-764.58 76.22L-772.22 74.47L-779.96 73.02L-787.81 71.88L-795.75 71.06L-803.78 70.57L-811.89 70.4L-820 70.57L-828.03 71.06Z" id="e5HbUtQAL"></path><path d="M317.14 109.34L317.67 109.39L318.19 109.47L318.71 109.56L319.22 109.68L319.72 109.81L320.21 109.97L320.7 110.15L321.17 110.34L321.64 110.55L322.1 110.78L322.54 111.02L322.98 111.29L323.41 111.57L323.82 111.86L324.22 112.17L324.61 112.5L324.99 112.84L325.35 113.19L325.7 113.56L326.04 113.94L326.36 114.34L326.66 114.74L326.95 115.16L327.23 115.59L327.49 116.04L327.73 116.49L327.96 116.95L328.17 117.43L328.36 117.91L328.53 118.4L328.68 118.9L328.82 119.41L328.93 119.93L329.03 120.45L329.1 120.98L329.15 121.52L329.19 122.06L329.2 122.61L329.2 217.2L330.49 215.89L331.81 214.61L333.15 213.36L334.51 212.13L335.9 210.93L337.31 209.76L338.74 208.62L340.19 207.51L341.66 206.43L343.15 205.38L344.66 204.36L346.19 203.37L347.74 202.41L349.31 201.49L350.89 200.59L352.5 199.73L354.12 198.89L355.75 198.09L357.4 197.32L359.07 196.59L360.75 195.89L362.45 195.22L364.16 194.58L365.88 193.98L367.62 193.42L369.36 192.88L371.12 192.39L372.9 191.92L374.68 191.5L376.48 191.1L378.28 190.75L380.09 190.43L381.92 190.15L383.75 189.9L385.59 189.69L387.44 189.52L389.29 189.39L391.16 189.29L393.02 189.23L394.9 189.21L398.68 189.29L402.43 189.52L406.14 189.91L409.8 190.44L413.41 191.11L416.98 191.93L420.49 192.88L423.94 193.97L427.33 195.2L430.67 196.55L433.93 198.03L437.13 199.64L440.26 201.36L443.31 203.2L446.29 205.16L449.19 207.23L452 209.4L454.73 211.69L457.36 214.07L459.91 216.55L462.36 219.13L464.71 221.81L466.96 224.57L469.11 227.42L471.15 230.36L473.08 233.38L474.9 236.47L476.6 239.64L478.18 242.88L479.64 246.2L480.98 249.57L482.18 253.02L483.26 256.52L484.2 260.08L485.01 263.69L485.67 267.35L486.2 271.06L486.57 274.82L486.8 278.62L486.88 282.46L486.87 283L486.84 283.55L486.78 284.09L486.71 284.62L486.61 285.14L486.5 285.66L486.36 286.17L486.21 286.67L486.04 287.16L485.85 287.64L485.64 288.11L485.41 288.58L485.17 289.03L484.91 289.47L484.64 289.9L484.34 290.32L484.04 290.73L483.72 291.12L483.38 291.51L483.03 291.87L482.67 292.23L482.29 292.57L481.9 292.9L481.5 293.21L481.09 293.5L480.66 293.78L480.23 294.04L479.78 294.29L479.32 294.52L478.85 294.73L478.38 294.92L477.89 295.1L477.4 295.25L476.9 295.39L476.39 295.51L475.87 295.6L475.35 295.68L474.82 295.73L474.28 295.76L473.74 295.78L380.43 295.78L381.72 297.09L382.99 298.42L384.22 299.78L385.43 301.16L386.61 302.57L387.77 304L388.89 305.45L389.99 306.92L391.05 308.41L392.09 309.92L393.09 311.45L394.07 313L395.02 314.57L395.93 316.16L396.82 317.77L397.67 319.39L398.49 321.03L399.28 322.69L400.04 324.36L400.76 326.05L401.46 327.76L402.12 329.48L402.74 331.21L403.33 332.96L403.89 334.72L404.42 336.49L404.91 338.28L405.37 340.07L405.79 341.88L406.17 343.7L406.52 345.53L406.84 347.37L407.12 349.22L407.36 351.07L407.57 352.94L407.74 354.81L407.87 356.69L407.96 358.58L408.02 360.48L408.04 362.38L407.96 366.22L407.73 370.01L407.36 373.77L406.83 377.48L406.17 381.15L405.36 384.76L404.42 388.32L403.34 391.82L402.13 395.26L400.8 398.64L399.34 401.95L397.76 405.19L396.06 408.36L394.24 411.46L392.31 414.47L390.27 417.41L388.12 420.26L385.87 423.02L383.52 425.7L381.07 428.28L378.52 430.76L375.88 433.15L373.16 435.43L370.35 437.61L367.45 439.67L364.47 441.63L361.42 443.47L358.29 445.2L355.09 446.8L351.83 448.28L348.49 449.63L345.1 450.86L341.65 451.95L338.14 452.91L334.57 453.72L330.96 454.4L327.3 454.93L323.59 455.31L319.84 455.54L316.06 455.62L315.52 455.61L314.98 455.58L314.45 455.52L313.93 455.45L313.41 455.35L312.9 455.23L312.4 455.1L311.9 454.94L311.42 454.77L310.94 454.57L310.48 454.36L310.02 454.13L309.57 453.89L309.14 453.62L308.71 453.34L308.3 453.05L307.9 452.74L307.51 452.41L307.13 452.07L306.77 451.72L306.42 451.35L306.08 450.97L305.76 450.57L305.45 450.17L305.16 449.75L304.89 449.32L304.63 448.87L304.38 448.42L304.16 447.96L303.95 447.48L303.76 447L303.59 446.51L303.43 446.01L303.3 445.5L303.18 444.98L303.09 444.46L303.02 443.93L302.96 443.39L302.93 442.85L302.92 442.3L302.92 347.71L301.62 349.02L300.31 350.3L298.97 351.56L297.6 352.78L296.22 353.98L294.81 355.15L293.38 356.29L291.93 357.4L290.46 358.48L288.97 359.53L287.45 360.55L285.92 361.54L284.38 362.5L282.81 363.42L281.22 364.32L279.62 365.19L278 366.02L276.37 366.82L274.72 367.59L273.05 368.32L271.37 369.02L269.67 369.69L267.96 370.33L266.24 370.93L264.5 371.5L262.75 372.03L260.99 372.53L259.22 372.99L257.44 373.42L255.64 373.81L253.84 374.16L252.02 374.48L250.2 374.76L248.37 375.01L246.53 375.22L244.68 375.39L242.82 375.52L240.96 375.62L239.09 375.68L237.22 375.7L233.43 375.62L229.68 375.39L225.98 375.01L222.32 374.48L218.7 373.8L215.14 372.98L211.63 372.03L208.18 370.94L204.78 369.71L201.45 368.36L198.18 366.88L194.98 365.27L191.86 363.55L188.8 361.71L185.83 359.75L182.93 357.68L180.12 355.51L177.39 353.23L174.75 350.84L172.21 348.36L169.76 345.78L167.4 343.1L165.15 340.34L163.01 337.49L160.97 334.55L159.04 331.53L157.22 328.44L155.52 325.27L153.94 322.03L152.48 318.71L151.14 315.34L149.93 311.9L148.86 308.39L147.91 304.84L147.11 301.22L146.44 297.56L145.92 293.85L145.54 290.09L145.31 286.29L145.24 282.46L145.25 281.91L145.28 281.36L145.33 280.83L145.41 280.29L145.5 279.77L145.62 279.25L145.75 278.75L145.91 278.25L146.08 277.75L146.27 277.27L146.48 276.8L146.7 276.33L146.95 275.88L147.2 275.44L147.48 275.01L147.77 274.59L148.08 274.18L148.4 273.79L148.73 273.4L149.08 273.04L149.45 272.68L149.82 272.34L150.21 272.02L150.62 271.71L151.03 271.41L151.45 271.13L151.89 270.87L152.34 270.62L152.79 270.39L153.26 270.18L153.74 269.99L154.22 269.81L154.72 269.66L155.22 269.52L155.73 269.41L156.24 269.31L156.77 269.23L157.3 269.18L157.83 269.15L158.38 269.14L251.69 269.14L250.39 267.82L249.13 266.49L247.89 265.13L246.68 263.75L245.5 262.34L244.35 260.92L243.22 259.47L242.13 258L241.06 256.5L240.03 254.99L239.02 253.46L238.04 251.91L237.1 250.34L236.18 248.75L235.3 247.14L234.45 245.52L233.63 243.88L232.84 242.22L232.08 240.55L231.35 238.86L230.66 237.15L230 235.43L229.37 233.7L228.78 231.95L228.22 230.19L227.7 228.42L227.21 226.63L226.75 224.84L226.33 223.03L225.94 221.21L225.59 219.38L225.28 217.54L225 215.69L224.76 213.84L224.55 211.97L224.38 210.1L224.25 208.22L224.15 206.33L224.1 204.43L224.08 202.53L224.15 198.7L224.38 194.9L224.76 191.14L225.28 187.43L225.95 183.77L226.75 180.15L227.7 176.6L228.77 173.09L229.98 169.65L231.32 166.27L232.78 162.96L234.36 159.72L236.06 156.55L237.88 153.45L239.81 150.44L241.85 147.5L243.99 144.65L246.25 141.89L248.6 139.21L251.05 136.63L253.59 134.15L256.23 131.76L258.96 129.48L261.77 127.31L264.67 125.24L267.64 123.28L270.7 121.44L273.82 119.71L277.02 118.11L280.29 116.63L283.62 115.28L287.02 114.05L290.47 112.96L293.98 112.01L297.54 111.19L301.16 110.51L304.82 109.98L308.53 109.6L312.27 109.37L316.06 109.29L316.6 109.3L317.14 109.34ZM358.43 314.02L357.86 314.79L357.27 315.54L356.68 316.29L356.07 317.03L355.45 317.75L354.82 318.46L354.17 319.16L353.52 319.85L352.85 320.53L352.17 321.19L351.48 321.84L350.78 322.48L350.06 323.1L349.34 323.71L348.6 324.31L347.86 324.89L347.1 325.46L346.34 326.02L345.56 326.57L344.78 327.09L343.98 327.61L343.18 328.11L342.36 328.6L341.54 329.07L340.71 329.53L339.87 329.97L339.02 330.4L338.17 330.81L337.3 331.2L336.43 331.58L335.55 331.95L334.67 332.3L333.77 332.63L332.87 332.95L331.96 333.25L331.05 333.54L330.13 333.8L329.2 334.06L329.2 427.64L331.43 427.14L333.63 426.56L335.81 425.91L337.95 425.18L340.06 424.38L342.13 423.51L344.17 422.57L346.17 421.56L348.13 420.49L350.05 419.35L351.92 418.15L353.76 416.89L355.55 415.57L357.29 414.19L358.99 412.75L360.64 411.26L362.24 409.71L363.78 408.11L365.27 406.45L366.71 404.75L368.09 403L369.41 401.2L370.68 399.35L371.88 397.46L373.03 395.53L374.1 393.55L375.12 391.54L376.07 389.49L376.95 387.4L377.76 385.27L378.5 383.11L379.17 380.92L379.76 378.7L380.28 376.44L380.73 374.16L381.1 371.85L381.38 369.52L381.59 367.16L381.72 364.78L381.76 362.38L381.74 360.93L381.7 359.49L381.62 358.06L381.51 356.63L381.38 355.2L381.21 353.79L381.01 352.38L380.79 350.97L380.53 349.58L380.25 348.19L379.94 346.81L379.59 345.44L379.23 344.08L378.83 342.73L378.4 341.39L377.95 340.06L377.47 338.75L376.97 337.44L376.44 336.15L375.88 334.86L375.29 333.59L374.68 332.34L374.04 331.09L373.38 329.87L372.69 328.65L371.98 327.45L371.24 326.27L370.48 325.1L369.7 323.95L368.89 322.81L368.05 321.69L367.2 320.59L366.32 319.5L365.41 318.44L364.49 317.39L363.54 316.36L362.57 315.35L361.57 314.36L360.56 313.39L359.52 312.44L358.98 313.23L358.43 314.02ZM173.33 298.04L173.9 300.27L174.55 302.48L175.27 304.65L176.05 306.78L176.91 308.88L177.84 310.95L178.83 312.98L179.89 314.96L181.01 316.91L182.19 318.81L183.44 320.67L184.74 322.49L186.11 324.26L187.53 325.98L189 327.65L190.53 329.27L192.11 330.83L193.74 332.34L195.42 333.8L197.15 335.2L198.92 336.54L200.74 337.83L202.61 339.05L204.51 340.2L206.46 341.3L208.45 342.33L210.47 343.29L212.54 344.18L214.63 345L216.76 345.75L218.92 346.43L221.12 347.03L223.34 347.56L225.59 348.01L227.87 348.39L230.17 348.68L232.5 348.89L234.85 349.01L237.22 349.06L238.64 349.04L240.06 348.99L241.48 348.92L242.89 348.81L244.3 348.67L245.69 348.5L247.09 348.3L248.47 348.07L249.85 347.81L251.21 347.53L252.57 347.21L253.93 346.86L255.27 346.49L256.6 346.09L257.92 345.66L259.23 345.2L260.53 344.71L261.82 344.2L263.1 343.66L264.36 343.09L265.62 342.5L266.85 341.88L268.08 341.24L269.29 340.56L270.49 339.87L271.67 339.15L272.84 338.4L274 337.63L275.13 336.83L276.25 336.01L277.36 335.16L278.44 334.3L279.51 333.4L280.57 332.49L281.6 331.55L282.61 330.59L283.61 329.6L284.59 328.6L285.54 327.57L286.48 326.52L285.7 325.97L284.93 325.4L284.17 324.83L283.42 324.24L282.68 323.63L281.95 323.02L281.24 322.39L280.54 321.75L279.85 321.09L279.17 320.43L278.5 319.75L277.85 319.06L277.21 318.36L276.58 317.65L275.96 316.93L275.36 316.19L274.77 315.45L274.19 314.69L273.63 313.93L273.08 313.15L272.55 312.36L272.02 311.57L271.51 310.76L271.02 309.95L270.54 309.12L270.08 308.29L269.62 307.45L269.19 306.6L268.77 305.74L268.36 304.87L267.97 303.99L267.59 303.11L267.23 302.22L266.89 301.32L266.56 300.41L266.25 299.5L265.95 298.58L265.67 297.65L265.4 296.72L265.16 295.78L172.84 295.78L173.33 298.04ZM313.45 255.94L312.18 256.1L310.92 256.32L309.68 256.6L308.47 256.94L307.28 257.33L306.12 257.78L304.98 258.28L303.88 258.84L302.8 259.44L301.75 260.1L300.74 260.8L299.76 261.54L298.82 262.33L297.92 263.17L297.05 264.04L296.23 264.96L295.44 265.91L294.71 266.9L294.01 267.93L293.37 268.99L292.77 270.08L292.22 271.21L291.72 272.36L291.28 273.54L290.89 274.75L290.56 275.98L290.28 277.23L290.06 278.51L289.91 279.81L289.81 281.12L289.78 282.46L289.81 283.78L289.9 285.1L290.06 286.39L290.28 287.66L290.55 288.92L290.89 290.15L291.27 291.35L291.72 292.53L292.21 293.68L292.76 294.81L293.36 295.9L294 296.96L294.69 297.98L295.43 298.98L296.21 299.93L297.03 300.85L297.89 301.72L298.8 302.56L299.74 303.35L300.71 304.1L301.73 304.8L302.77 305.46L303.85 306.06L304.96 306.62L306.1 307.12L307.26 307.57L308.45 307.97L309.67 308.31L310.9 308.59L312.16 308.81L313.44 308.97L314.74 309.06L316.06 309.1L317.37 309.06L318.66 308.97L319.94 308.81L321.2 308.59L322.43 308.31L323.64 307.97L324.83 307.58L326 307.13L327.13 306.63L328.24 306.07L329.32 305.47L330.36 304.82L331.38 304.12L332.35 303.37L333.3 302.58L334.2 301.74L335.07 300.87L335.89 299.95L336.67 299L337.41 298.01L338.1 296.98L338.75 295.92L339.35 294.83L339.89 293.71L340.39 292.55L340.84 291.37L341.22 290.17L341.56 288.94L341.84 287.68L342.05 286.4L342.21 285.11L342.31 283.79L342.34 282.46L342.31 281.13L342.21 279.81L342.05 278.52L341.84 277.25L341.56 275.99L341.23 274.76L340.84 273.56L340.4 272.38L339.9 271.23L339.36 270.11L338.76 269.01L338.12 267.95L337.43 266.93L336.69 265.94L335.91 264.98L335.09 264.06L334.22 263.19L333.32 262.35L332.38 261.56L331.4 260.81L330.39 260.11L329.34 259.45L328.27 258.85L327.16 258.29L326.02 257.79L324.86 257.34L323.67 256.94L322.45 256.61L321.21 256.32L319.95 256.1L318.67 255.94L317.37 255.85L316.06 255.81L314.75 255.85L313.45 255.94ZM392.05 215.92L390.63 215.99L389.22 216.1L387.82 216.24L386.42 216.41L385.03 216.61L383.65 216.84L382.27 217.1L380.9 217.39L379.54 217.7L378.19 218.05L376.85 218.42L375.52 218.82L374.2 219.25L372.89 219.71L371.59 220.2L370.3 220.71L369.02 221.25L367.75 221.82L366.5 222.41L365.26 223.03L364.04 223.67L362.83 224.35L361.63 225.04L360.44 225.77L359.28 226.51L358.12 227.28L356.99 228.08L355.86 228.9L354.76 229.75L353.67 230.62L352.6 231.51L351.55 232.42L350.52 233.36L349.5 234.32L348.51 235.31L347.53 236.32L346.57 237.34L345.64 238.39L346.42 238.94L347.19 239.51L347.95 240.08L348.7 240.67L349.44 241.28L350.16 241.89L350.88 242.52L351.58 243.16L352.27 243.82L352.95 244.48L353.61 245.16L354.27 245.85L354.91 246.55L355.54 247.26L356.15 247.98L356.75 248.72L357.34 249.46L357.92 250.22L358.48 250.98L359.03 251.76L359.57 252.55L360.09 253.34L360.6 254.15L361.09 254.96L361.57 255.79L362.04 256.62L362.49 257.46L362.93 258.31L363.35 259.17L363.75 260.04L364.14 260.92L364.52 261.8L364.88 262.69L365.22 263.59L365.55 264.5L365.87 265.41L366.16 266.33L366.44 267.26L366.71 268.19L366.96 269.14L459.28 269.14L458.78 266.87L458.21 264.64L457.57 262.44L456.85 260.27L456.06 258.13L455.21 256.03L454.28 253.96L453.29 251.94L452.23 249.95L451.11 248L449.92 246.1L448.68 244.24L447.37 242.42L446.01 240.65L444.59 238.93L443.12 237.26L441.59 235.65L440.01 234.08L438.38 232.57L436.7 231.11L434.97 229.71L433.19 228.37L431.37 227.09L429.51 225.87L427.6 224.71L425.65 223.61L423.67 222.59L421.64 221.62L419.58 220.73L417.48 219.91L415.35 219.16L413.19 218.48L411 217.88L408.77 217.35L406.52 216.9L404.25 216.53L401.94 216.23L399.62 216.02L397.27 215.9L394.9 215.85L393.47 215.87L392.05 215.92ZM298.48 138.35L296.31 139.01L294.17 139.73L292.06 140.53L289.99 141.4L287.95 142.34L285.95 143.35L283.99 144.42L282.07 145.56L280.19 146.76L278.36 148.02L276.57 149.34L274.82 150.72L273.13 152.16L271.48 153.65L269.88 155.2L268.34 156.81L266.84 158.46L265.41 160.16L264.03 161.92L262.7 163.72L261.44 165.56L260.23 167.45L259.09 169.38L258.01 171.36L257 173.37L256.05 175.42L255.17 177.51L254.36 179.64L253.62 181.8L252.95 183.99L252.35 186.21L251.83 188.47L251.39 190.75L251.02 193.06L250.73 195.39L250.52 197.75L250.4 200.13L250.36 202.53L250.37 203.98L250.42 205.42L250.5 206.86L250.6 208.29L250.74 209.71L250.91 211.13L251.1 212.54L251.33 213.94L251.58 215.34L251.87 216.72L252.18 218.1L252.52 219.47L252.89 220.83L253.29 222.18L253.71 223.52L254.16 224.85L254.64 226.17L255.15 227.47L255.68 228.77L256.24 230.05L256.82 231.32L257.44 232.58L258.07 233.82L258.73 235.05L259.42 236.26L260.13 237.46L260.87 238.65L261.63 239.82L262.42 240.97L263.23 242.11L264.06 243.22L264.92 244.33L265.8 245.41L266.7 246.48L267.63 247.52L268.58 248.55L269.55 249.56L270.54 250.55L271.56 251.52L272.59 252.47L273.14 251.68L273.69 250.9L274.26 250.13L274.84 249.37L275.44 248.62L276.04 247.88L276.66 247.16L277.3 246.45L277.94 245.75L278.6 245.06L279.27 244.39L279.95 243.72L280.64 243.07L281.34 242.44L282.05 241.81L282.78 241.2L283.51 240.6L284.26 240.02L285.01 239.45L285.78 238.89L286.55 238.35L287.34 237.82L288.13 237.3L288.94 236.8L289.75 236.31L290.57 235.84L291.4 235.39L292.24 234.94L293.09 234.52L293.95 234.1L294.81 233.71L295.68 233.33L296.56 232.96L297.45 232.61L298.34 232.28L299.25 231.96L300.15 231.66L301.07 231.37L301.99 231.11L302.92 230.86L302.92 137.27L300.69 137.77L298.48 138.35Z" id="c34EKD4ozt"></path></defs><g><g><g><use xlink:href="#e5HbUtQAL" opacity="1" fill="#0060ff" fill-opacity="1"></use><g><use xlink:href="#e5HbUtQAL" opacity="1" fill-opacity="0" stroke="#000000" stroke-width="1" stroke-opacity="0"></use></g></g><g><use xlink:href="#c34EKD4ozt" opacity="1" fill="#0060ff" fill-opacity="1"></use><g><use xlink:href="#c34EKD4ozt" opacity="1" fill-opacity="0" stroke="#000000" stroke-width="1" stroke-opacity="0"></use></g></g></g></g></svg>