<?xml version="1.0" encoding="UTF-8"?>
<svg xmlns="http://www.w3.org/2000/svg" xmlns:xlink="http://www.w3.org/1999/xlink" width="16px" height="16px" viewBox="-2.5 0 16 16" version="1.1">
    <g id="surface1">
        <path style=" stroke:none;fill-rule:nonzero;fill:rgb(0%,37.647059%,100%);fill-opacity:1;" d="M 7.929688 2.734375 L 7.953125 2.734375 L 7.992188 2.746094 L 8.015625 2.753906 L 8.039062 2.765625 L 8.054688 2.769531 L 8.0625 2.773438 L 8.085938 2.789062 L 8.09375 2.796875 L 8.117188 2.8125 L 8.125 2.820312 L 8.140625 2.839844 L 8.152344 2.847656 L 8.160156 2.859375 L 8.164062 2.867188 L 8.195312 2.914062 L 8.210938 2.945312 L 8.21875 2.984375 L 8.222656 3 L 8.226562 3.011719 L 8.226562 3.023438 L 8.230469 3.066406 L 8.230469 5.429688 L 8.296875 5.367188 L 8.328125 5.335938 L 8.433594 5.242188 L 8.539062 5.160156 L 8.578125 5.132812 L 8.8125 4.992188 L 8.851562 4.972656 L 8.894531 4.953125 L 8.933594 4.933594 L 9.019531 4.898438 L 9.0625 4.882812 L 9.101562 4.863281 L 9.148438 4.851562 L 9.234375 4.820312 L 9.320312 4.796875 L 9.367188 4.789062 L 9.414062 4.777344 L 9.5 4.761719 L 9.59375 4.746094 L 9.734375 4.734375 L 9.78125 4.734375 L 9.824219 4.730469 L 9.871094 4.730469 L 9.96875 4.734375 L 10.0625 4.738281 L 10.152344 4.75 L 10.246094 4.761719 L 10.335938 4.777344 L 10.425781 4.796875 L 10.511719 4.820312 L 10.597656 4.851562 L 10.683594 4.878906 L 10.765625 4.914062 L 10.929688 4.992188 L 11.007812 5.035156 L 11.082031 5.078125 L 11.230469 5.179688 L 11.300781 5.234375 L 11.433594 5.351562 L 11.5 5.414062 L 11.558594 5.476562 L 11.617188 5.546875 L 11.671875 5.613281 L 11.726562 5.6875 L 11.777344 5.757812 L 11.828125 5.835938 L 11.914062 5.992188 L 11.953125 6.070312 L 11.992188 6.15625 L 12.023438 6.238281 L 12.054688 6.324219 L 12.082031 6.414062 L 12.105469 6.5 L 12.125 6.59375 L 12.140625 6.683594 L 12.15625 6.777344 L 12.171875 6.964844 L 12.171875 7.101562 L 12.167969 7.117188 L 12.164062 7.128906 L 12.160156 7.15625 L 12.148438 7.191406 L 12.132812 7.214844 L 12.125 7.234375 L 12.101562 7.269531 L 12.085938 7.289062 L 12.078125 7.296875 L 12.066406 7.304688 L 12.058594 7.3125 L 12.046875 7.320312 L 12.039062 7.328125 L 12.015625 7.34375 L 12.007812 7.351562 L 11.960938 7.375 L 11.945312 7.378906 L 11.933594 7.382812 L 11.921875 7.382812 L 11.898438 7.390625 L 11.882812 7.390625 L 11.871094 7.394531 L 9.511719 7.394531 L 9.574219 7.460938 L 9.605469 7.492188 L 9.636719 7.53125 L 9.695312 7.601562 L 9.75 7.671875 L 9.804688 7.75 L 9.828125 7.785156 L 9.875 7.863281 L 9.921875 7.945312 L 9.960938 8.023438 L 9.984375 8.066406 L 10 8.109375 L 10.019531 8.152344 L 10.035156 8.195312 L 10.054688 8.238281 L 10.070312 8.28125 L 10.097656 8.367188 L 10.109375 8.414062 L 10.125 8.457031 L 10.144531 8.546875 L 10.15625 8.59375 L 10.164062 8.640625 L 10.171875 8.683594 L 10.179688 8.730469 L 10.1875 8.824219 L 10.195312 8.871094 L 10.195312 8.917969 L 10.199219 8.964844 L 10.199219 9.011719 L 10.203125 9.058594 L 10.199219 9.15625 L 10.195312 9.25 L 10.171875 9.4375 L 10.15625 9.527344 L 10.085938 9.796875 L 10.054688 9.882812 L 9.984375 10.046875 L 9.945312 10.128906 L 9.902344 10.210938 L 9.808594 10.359375 L 9.757812 10.4375 L 9.703125 10.507812 L 9.648438 10.574219 L 9.585938 10.640625 L 9.527344 10.707031 L 9.460938 10.769531 L 9.398438 10.828125 L 9.328125 10.886719 L 9.257812 10.941406 L 9.1875 10.992188 L 9.109375 11.039062 L 9.035156 11.085938 L 8.957031 11.128906 L 8.875 11.171875 L 8.796875 11.207031 L 8.710938 11.242188 L 8.628906 11.273438 L 8.539062 11.296875 L 8.453125 11.320312 L 8.363281 11.34375 L 8.183594 11.375 L 7.996094 11.390625 L 7.875 11.390625 L 7.859375 11.386719 L 7.847656 11.386719 L 7.835938 11.382812 L 7.808594 11.378906 L 7.796875 11.375 L 7.785156 11.367188 L 7.761719 11.359375 L 7.75 11.351562 L 7.738281 11.347656 L 7.71875 11.335938 L 7.707031 11.328125 L 7.6875 11.3125 L 7.679688 11.300781 L 7.667969 11.292969 L 7.660156 11.285156 L 7.652344 11.273438 L 7.644531 11.265625 L 7.628906 11.242188 L 7.621094 11.234375 L 7.617188 11.222656 L 7.601562 11.199219 L 7.589844 11.164062 L 7.582031 11.136719 L 7.578125 11.125 L 7.574219 11.097656 L 7.574219 8.691406 L 7.476562 8.789062 L 7.40625 8.851562 L 7.335938 8.90625 L 7.296875 8.933594 L 7.226562 8.988281 L 7.1875 9.015625 L 7.03125 9.109375 L 6.992188 9.128906 L 6.949219 9.148438 L 6.910156 9.171875 L 6.867188 9.1875 L 6.828125 9.207031 L 6.785156 9.226562 L 6.65625 9.273438 L 6.570312 9.300781 L 6.523438 9.3125 L 6.4375 9.335938 L 6.34375 9.351562 L 6.300781 9.363281 L 6.253906 9.367188 L 6.164062 9.382812 L 6.117188 9.382812 L 6.023438 9.390625 L 5.835938 9.390625 L 5.648438 9.375 L 5.558594 9.363281 L 5.378906 9.324219 L 5.289062 9.300781 L 5.203125 9.273438 L 5.117188 9.242188 L 5.035156 9.210938 L 4.953125 9.171875 L 4.875 9.132812 L 4.796875 9.089844 L 4.71875 9.042969 L 4.644531 8.992188 L 4.574219 8.941406 L 4.433594 8.832031 L 4.367188 8.773438 L 4.304688 8.710938 L 4.242188 8.644531 L 4.183594 8.578125 L 4.074219 8.4375 L 4.023438 8.363281 L 3.976562 8.289062 L 3.929688 8.210938 L 3.886719 8.132812 L 3.847656 8.050781 L 3.8125 7.96875 L 3.777344 7.882812 L 3.722656 7.710938 L 3.695312 7.621094 L 3.679688 7.53125 L 3.660156 7.4375 L 3.648438 7.347656 L 3.640625 7.25 L 3.632812 7.15625 L 3.632812 7.007812 L 3.644531 6.96875 L 3.652344 6.945312 L 3.664062 6.921875 L 3.667969 6.90625 L 3.671875 6.898438 L 3.6875 6.875 L 3.695312 6.867188 L 3.703125 6.855469 L 3.71875 6.835938 L 3.726562 6.828125 L 3.734375 6.816406 L 3.746094 6.808594 L 3.753906 6.800781 L 3.765625 6.792969 L 3.773438 6.785156 L 3.796875 6.773438 L 3.820312 6.757812 L 3.867188 6.742188 L 3.90625 6.734375 L 3.917969 6.730469 L 3.933594 6.730469 L 3.945312 6.726562 L 6.292969 6.726562 L 6.257812 6.695312 L 6.226562 6.664062 L 6.195312 6.628906 L 6.167969 6.59375 L 6.109375 6.523438 L 6.078125 6.484375 L 6.054688 6.449219 L 6.027344 6.414062 L 6 6.375 L 5.882812 6.179688 L 5.859375 6.136719 L 5.839844 6.097656 L 5.820312 6.054688 L 5.800781 6.015625 L 5.785156 5.972656 L 5.765625 5.929688 L 5.734375 5.84375 L 5.703125 5.753906 L 5.691406 5.710938 L 5.667969 5.621094 L 5.65625 5.578125 L 5.625 5.390625 L 5.613281 5.296875 L 5.609375 5.253906 L 5.605469 5.203125 L 5.601562 5.15625 L 5.601562 4.96875 L 5.609375 4.871094 L 5.617188 4.777344 L 5.632812 4.6875 L 5.648438 4.59375 L 5.667969 4.503906 L 5.691406 4.414062 L 5.71875 4.328125 L 5.78125 4.15625 L 5.859375 3.992188 L 5.945312 3.835938 L 6.046875 3.6875 L 6.15625 3.546875 L 6.214844 3.480469 L 6.277344 3.414062 L 6.339844 3.351562 L 6.40625 3.292969 L 6.472656 3.238281 L 6.542969 3.183594 L 6.691406 3.082031 L 6.765625 3.035156 L 6.84375 2.992188 L 7.007812 2.914062 L 7.089844 2.882812 L 7.175781 2.851562 L 7.261719 2.824219 L 7.351562 2.800781 L 7.4375 2.78125 L 7.53125 2.761719 L 7.621094 2.75 L 7.710938 2.742188 L 7.804688 2.734375 Z M 8.960938 7.851562 L 8.945312 7.871094 L 8.917969 7.90625 L 8.886719 7.945312 L 8.855469 7.976562 L 8.820312 8.015625 L 8.789062 8.046875 L 8.75 8.078125 L 8.734375 8.09375 L 8.679688 8.136719 L 8.617188 8.179688 L 8.601562 8.191406 L 8.578125 8.203125 L 8.515625 8.238281 L 8.496094 8.25 L 8.453125 8.269531 L 8.433594 8.28125 L 8.410156 8.289062 L 8.390625 8.296875 L 8.367188 8.308594 L 8.296875 8.332031 L 8.277344 8.339844 L 8.253906 8.34375 L 8.230469 8.351562 L 8.230469 10.691406 L 8.285156 10.679688 L 8.394531 10.648438 L 8.449219 10.628906 L 8.5 10.609375 L 8.554688 10.585938 L 8.65625 10.539062 L 8.75 10.484375 L 8.890625 10.390625 L 8.976562 10.320312 L 9.09375 10.203125 L 9.132812 10.160156 L 9.203125 10.074219 L 9.234375 10.03125 L 9.328125 9.890625 L 9.351562 9.839844 L 9.378906 9.789062 L 9.402344 9.738281 L 9.421875 9.683594 L 9.445312 9.632812 L 9.460938 9.578125 L 9.480469 9.523438 L 9.492188 9.46875 L 9.507812 9.410156 L 9.519531 9.351562 L 9.527344 9.296875 L 9.535156 9.238281 L 9.539062 9.179688 L 9.542969 9.117188 L 9.542969 8.988281 L 9.539062 8.953125 L 9.539062 8.914062 L 9.53125 8.84375 L 9.523438 8.808594 L 9.515625 8.738281 L 9.507812 8.703125 L 9.5 8.671875 L 9.492188 8.636719 L 9.480469 8.601562 L 9.46875 8.570312 L 9.449219 8.5 L 9.421875 8.4375 L 9.410156 8.402344 L 9.398438 8.371094 L 9.335938 8.246094 L 9.316406 8.214844 L 9.300781 8.1875 L 9.28125 8.15625 L 9.242188 8.097656 L 9.203125 8.042969 L 9.132812 7.960938 L 9.113281 7.933594 L 9.0625 7.882812 L 8.988281 7.8125 L 8.976562 7.832031 Z M 4.332031 7.453125 L 4.363281 7.5625 L 4.402344 7.671875 L 4.421875 7.722656 L 4.46875 7.824219 L 4.496094 7.875 L 4.523438 7.921875 L 4.617188 8.0625 L 4.6875 8.148438 L 4.726562 8.191406 L 4.84375 8.308594 L 4.972656 8.414062 L 5.066406 8.476562 L 5.160156 8.53125 L 5.210938 8.558594 L 5.3125 8.605469 L 5.367188 8.625 L 5.417969 8.644531 L 5.527344 8.675781 L 5.585938 8.6875 L 5.695312 8.710938 L 5.753906 8.71875 L 5.871094 8.726562 L 6 8.726562 L 6.140625 8.710938 L 6.179688 8.707031 L 6.210938 8.703125 L 6.28125 8.6875 L 6.3125 8.679688 L 6.347656 8.671875 L 6.414062 8.652344 L 6.449219 8.640625 L 6.480469 8.628906 L 6.515625 8.617188 L 6.578125 8.59375 L 6.734375 8.515625 L 6.761719 8.496094 L 6.820312 8.460938 L 6.878906 8.421875 L 6.90625 8.398438 L 6.960938 8.359375 L 7.015625 8.3125 L 7.039062 8.289062 L 7.066406 8.265625 L 7.117188 8.214844 L 7.140625 8.1875 L 7.164062 8.164062 L 7.140625 8.148438 L 7.125 8.132812 L 7.105469 8.121094 L 7.046875 8.074219 L 7.015625 8.042969 L 6.996094 8.027344 L 6.929688 7.960938 L 6.898438 7.921875 L 6.882812 7.90625 L 6.867188 7.886719 L 6.855469 7.867188 L 6.839844 7.847656 L 6.828125 7.828125 L 6.8125 7.808594 L 6.789062 7.769531 L 6.773438 7.75 L 6.765625 7.726562 L 6.742188 7.6875 L 6.730469 7.664062 L 6.71875 7.644531 L 6.710938 7.621094 L 6.699219 7.601562 L 6.6875 7.578125 L 6.664062 7.507812 L 6.648438 7.464844 L 6.632812 7.417969 L 6.628906 7.394531 L 4.320312 7.394531 Z M 7.835938 6.398438 L 7.773438 6.40625 L 7.710938 6.421875 L 7.679688 6.433594 L 7.597656 6.46875 L 7.570312 6.484375 L 7.542969 6.503906 L 7.519531 6.519531 L 7.492188 6.539062 L 7.46875 6.558594 L 7.425781 6.601562 L 7.386719 6.648438 L 7.351562 6.699219 L 7.335938 6.726562 L 7.320312 6.75 L 7.304688 6.78125 L 7.292969 6.808594 L 7.28125 6.839844 L 7.273438 6.867188 L 7.25 6.960938 L 7.25 6.996094 L 7.246094 7.027344 L 7.242188 7.0625 L 7.246094 7.09375 L 7.246094 7.128906 L 7.25 7.160156 L 7.28125 7.285156 L 7.292969 7.3125 L 7.304688 7.34375 L 7.335938 7.398438 L 7.351562 7.421875 L 7.367188 7.449219 L 7.386719 7.476562 L 7.425781 7.523438 L 7.445312 7.542969 L 7.46875 7.5625 L 7.492188 7.585938 L 7.515625 7.601562 L 7.542969 7.621094 L 7.597656 7.652344 L 7.625 7.664062 L 7.652344 7.679688 L 7.679688 7.6875 L 7.710938 7.699219 L 7.773438 7.714844 L 7.804688 7.71875 L 7.835938 7.726562 L 7.96875 7.726562 L 8 7.71875 L 8.03125 7.714844 L 8.0625 7.707031 L 8.089844 7.699219 L 8.121094 7.6875 L 8.148438 7.679688 L 8.234375 7.636719 L 8.257812 7.621094 L 8.285156 7.601562 L 8.308594 7.585938 L 8.332031 7.5625 L 8.355469 7.542969 L 8.398438 7.5 L 8.417969 7.476562 L 8.4375 7.449219 L 8.453125 7.425781 L 8.484375 7.371094 L 8.496094 7.34375 L 8.507812 7.3125 L 8.523438 7.285156 L 8.546875 7.191406 L 8.554688 7.128906 L 8.558594 7.09375 L 8.558594 7.027344 L 8.554688 6.996094 L 8.550781 6.960938 L 8.546875 6.929688 L 8.539062 6.898438 L 8.523438 6.839844 L 8.507812 6.808594 L 8.484375 6.753906 L 8.4375 6.671875 L 8.398438 6.625 L 8.375 6.601562 L 8.355469 6.578125 L 8.285156 6.519531 L 8.257812 6.503906 L 8.234375 6.484375 L 8.207031 6.472656 L 8.179688 6.457031 L 8.148438 6.445312 L 8.09375 6.421875 L 8.03125 6.40625 L 7.96875 6.398438 L 7.933594 6.398438 L 7.902344 6.394531 L 7.867188 6.398438 Z M 9.800781 5.398438 L 9.765625 5.398438 L 9.625 5.414062 L 9.589844 5.421875 L 9.523438 5.433594 L 9.488281 5.441406 L 9.453125 5.453125 L 9.421875 5.460938 L 9.386719 5.46875 L 9.355469 5.480469 L 9.320312 5.492188 L 9.257812 5.515625 L 9.039062 5.625 L 8.984375 5.664062 L 8.953125 5.679688 L 8.84375 5.765625 L 8.761719 5.835938 L 8.738281 5.859375 L 8.710938 5.882812 L 8.664062 5.933594 L 8.640625 5.960938 L 8.679688 5.988281 L 8.699219 6 L 8.71875 6.015625 L 8.734375 6.03125 L 8.773438 6.0625 L 8.890625 6.179688 L 8.902344 6.199219 L 8.917969 6.21875 L 8.933594 6.234375 L 8.949219 6.257812 L 8.960938 6.273438 L 8.988281 6.3125 L 9 6.335938 L 9.015625 6.351562 L 9.027344 6.375 L 9.050781 6.414062 L 9.0625 6.4375 L 9.085938 6.480469 L 9.09375 6.5 L 9.101562 6.523438 L 9.113281 6.546875 L 9.132812 6.589844 L 9.148438 6.632812 L 9.15625 6.65625 L 9.167969 6.703125 L 9.171875 6.726562 L 11.484375 6.726562 L 11.421875 6.507812 L 11.402344 6.453125 L 11.378906 6.398438 L 11.359375 6.347656 L 11.332031 6.296875 L 11.304688 6.25 L 11.277344 6.199219 L 11.25 6.152344 L 11.21875 6.105469 L 11.183594 6.0625 L 11.148438 6.015625 L 11.117188 5.972656 L 11.078125 5.929688 L 10.960938 5.8125 L 10.917969 5.777344 L 10.828125 5.710938 L 10.785156 5.679688 L 10.691406 5.617188 L 10.640625 5.589844 L 10.59375 5.5625 L 10.539062 5.539062 L 10.4375 5.5 L 10.382812 5.476562 L 10.273438 5.445312 L 10.164062 5.421875 L 10.046875 5.40625 L 9.992188 5.398438 Z M 7.460938 3.460938 L 7.40625 3.476562 L 7.355469 3.492188 L 7.300781 3.515625 L 7.25 3.535156 L 7.199219 3.558594 L 7.148438 3.585938 L 7.101562 3.609375 L 7.050781 3.640625 L 7.003906 3.667969 L 6.960938 3.699219 L 6.914062 3.734375 L 6.871094 3.765625 L 6.828125 3.804688 L 6.789062 3.839844 L 6.746094 3.878906 L 6.710938 3.921875 L 6.671875 3.960938 L 6.632812 4.003906 L 6.601562 4.046875 L 6.566406 4.09375 L 6.535156 4.140625 L 6.507812 4.1875 L 6.476562 4.234375 L 6.449219 4.285156 L 6.378906 4.4375 L 6.339844 4.546875 L 6.308594 4.65625 L 6.296875 4.710938 L 6.273438 4.828125 L 6.269531 4.882812 L 6.261719 4.945312 L 6.257812 5.003906 L 6.257812 5.101562 L 6.261719 5.171875 L 6.277344 5.3125 L 6.289062 5.382812 L 6.304688 5.453125 L 6.320312 5.519531 L 6.332031 5.554688 L 6.351562 5.621094 L 6.367188 5.65625 L 6.390625 5.71875 L 6.46875 5.875 L 6.503906 5.9375 L 6.523438 5.964844 L 6.5625 6.023438 L 6.582031 6.054688 L 6.601562 6.078125 L 6.625 6.109375 L 6.644531 6.132812 L 6.667969 6.164062 L 6.691406 6.1875 L 6.714844 6.214844 L 6.8125 6.3125 L 6.84375 6.273438 L 6.855469 6.253906 L 6.902344 6.195312 L 6.914062 6.179688 L 6.949219 6.144531 L 6.964844 6.125 L 6.980469 6.109375 L 7 6.09375 L 7.03125 6.0625 L 7.070312 6.03125 L 7.085938 6.015625 L 7.125 5.984375 L 7.183594 5.945312 L 7.222656 5.921875 L 7.304688 5.875 L 7.328125 5.863281 L 7.347656 5.851562 L 7.390625 5.832031 L 7.460938 5.804688 L 7.503906 5.789062 L 7.527344 5.785156 L 7.550781 5.777344 L 7.574219 5.773438 L 7.574219 3.429688 L 7.515625 3.445312 Z M 7.460938 3.460938 "/>
    </g>
</svg>
